<?xml version="1.0" encoding="UTF-8" standalone="no"?>
<svg width="21px" height="24px" viewBox="0 0 21 24" version="1.1" xmlns="http://www.w3.org/2000/svg" xmlns:xlink="http://www.w3.org/1999/xlink" xmlns:sketch="http://www.bohemiancoding.com/sketch/ns">
    <!-- Generator: Sketch 3.3.3 (12072) - http://www.bohemiancoding.com/sketch -->
    <title>Fill 3 + Fill 2 + Fill 1</title>
    <desc>Created with Sketch.</desc>
    <defs>
        <linearGradient x1="50%" y1="0%" x2="50%" y2="100%" id="linearGradient-1">
            <stop stop-color="#BB9A2A" offset="0%"></stop>
            <stop stop-color="#000000" offset="100%"></stop>
        </linearGradient>
    </defs>
    <g id="Page-1" stroke="none" stroke-width="1" fill="none" fill-rule="evenodd" sketch:type="MSPage">
        <g id="Fill-3-+-Fill-2-+-Fill-1" sketch:type="MSLayerGroup">
            <path d="M10.7272,23.5176 L10.7016,23.4552 L0.904,9.0568 L20.5504,9.0568 L10.7272,23.5176 L10.7272,23.5176 Z M10.7272,20.3904 C10.7272,20.3904 11.543916,18.4254727 11.9522741,17.4430091 C12.947916,15.0476061 14.9392,10.2568 14.9392,10.2568 L6.516,10.2568 L10.7272,20.3904 Z M16.2384,10.2568 L13.0312,17.9744 L18.2824,10.2568 L16.2384,10.2568 L16.2384,10.2568 Z M3.1728,10.2568 L8.4232,17.9744 L5.216,10.2568 L3.1728,10.2568 L3.1728,10.2568 Z" id="Fill-3" fill="url(#linearGradient-1)" sketch:type="MSShapeGroup"></path>
            <path d="M16.8336,8.5528 L4.0936,8.5528 L6.6192,0.2472 L13.8856,0.2472 L16.8336,8.5528 L16.8336,8.5528 Z M5.5856,7.4472 L15.268,7.4472 L13.1048,1.3528 L7.44,1.3528 L5.5856,7.4472 L5.5856,7.4472 Z" id="Fill-2" fill="#D0B721" sketch:type="MSShapeGroup"></path>
            <path d="M20.748,8.5528 L0.5488,8.5528 L4.6832,0.2472 L15.9232,0.2472 L20.748,8.5528 L20.748,8.5528 Z M2.3352,7.4472 L18.8264,7.4472 L15.2872,1.3528 L5.368,1.3528 L2.3352,7.4472 L2.3352,7.4472 Z" id="Fill-1" fill="#BB9A2A" sketch:type="MSShapeGroup"></path>
        </g>
    </g>
</svg>