<?xml version="1.0" encoding="UTF-8" standalone="no"?>
<svg width="63px" height="37px" viewBox="0 0 63 37" version="1.1" xmlns="http://www.w3.org/2000/svg" xmlns:xlink="http://www.w3.org/1999/xlink" xmlns:sketch="http://www.bohemiancoding.com/sketch/ns">
    <!-- Generator: Sketch 3.3.3 (12072) - http://www.bohemiancoding.com/sketch -->
    <title>Untitled</title>
    <desc>Created with Sketch.</desc>
    <defs></defs>
    <g id="Page-1" stroke="none" stroke-width="1" fill="none" fill-rule="evenodd" sketch:type="MSPage">
        <rect id="Rectangle-28" fill="#052748" sketch:type="MSShapeGroup" x="0" y="0" width="4.86495323" height="26.9298701"></rect>
        <g id="Group" sketch:type="MSLayerGroup" fill="#052748">
            <g sketch:type="MSShapeGroup">
                <path d="M61.7142857,0 L58.7199784,0 L53.8555413,0 C46.4293582,0 40.3948052,6.02845677 40.3948052,13.4649351 C40.3948052,20.9030484 46.421382,26.9298701 53.8555413,26.9298701 L58.7199784,26.9298701 L61.7142857,26.9298701 L61.7142857,21.9428571 L54.4174072,21.9428571 C49.7365575,21.9428571 45.9419791,18.1376347 45.9419791,13.4649351 C45.9419791,8.78270799 49.7403336,4.98701299 54.4174072,4.98701299 L61.7142857,4.98701299 L61.7142857,0 Z" id="Rectangle-90"></path>
                <path d="M2.24415584,26.9202797 L15.8729525,26.9202797 C19.8993857,26.9202797 23.1634547,23.6488216 23.1634547,19.6315684 C23.1634547,15.6061243 19.8999887,12.3428571 15.8729525,12.3428571 L2.24415584,12.3428571 L2.24415584,15.2583417 L14.4057773,15.2583417 C16.2799727,15.2583417 17.8120062,16.7811997 17.8120062,18.6597403 C17.8120062,20.5344584 16.2869856,22.0611389 14.4057773,22.0611389 L2.24415584,22.0611389 L2.24415584,26.9202797 Z" id="Rectangle-29-Copy-2"></path>
                <path d="M-2.22044605e-16,0 L13.6287967,0 C17.6552299,0 20.9192989,3.27145817 20.9192989,7.28871129 C20.9192989,11.3141554 17.6558329,14.5774226 13.6287967,14.5774226 L-2.22044605e-16,14.5774226 L0,11.6619381 L12.1616215,11.6619381 C14.0358169,11.6619381 15.5678503,10.13908 15.5678503,8.26053946 C15.5678503,6.38582134 14.0428297,4.85914086 12.1616215,4.85914086 L-5.55111512e-17,4.85914086 L0,0 Z" id="Rectangle-29-Copy-4"></path>
                <rect id="Rectangle-28-Copy" x="28.0519481" y="0" width="4.99297831" height="26.9298701"></rect>
                <path d="M49.5255924,0 L17.5760434,0 L17.5760434,-1.11022302e-16 C19.5356927,0.922742817 21.0183086,2.69267079 21.5521911,4.83356643 L39.3570661,4.83356643 C41.7622342,1.88372098 45.4237031,0 49.5215866,0 L49.5255924,0 Z" id="Rectangle-25-Copy"></path>
                <path d="M36.6040834,35.6057351 C36.6040834,35.4043846 36.6730635,35.2347308 36.8110259,35.0967685 C36.9489882,34.9588061 37.1205064,34.889826 37.3255855,34.889826 C37.5343934,34.889826 37.7077759,34.9597383 37.8457382,35.099565 C37.9837005,35.2393917 38.0526807,35.4081134 38.0526807,35.6057351 C38.0526807,35.7996281 37.9837005,35.9664855 37.8457382,36.1063121 C37.7077759,36.2461388 37.532529,36.3160511 37.3199925,36.3160511 C37.1149133,36.3160511 36.9443273,36.2461388 36.8082293,36.1063121 C36.6721313,35.9664855 36.6040834,35.7996281 36.6040834,35.6057351 L36.6040834,35.6057351 Z M43.9477446,35.9021662 C43.4741982,36.1855483 42.9037138,36.3272372 42.2362744,36.3272372 C41.3413836,36.3272372 40.621753,36.0401307 40.0773611,35.4659091 C39.5329692,34.8916875 39.2607773,34.1478206 39.2607773,33.2342862 C39.2607773,32.2200766 39.5544089,31.4025688 40.141681,30.7817383 C40.7289531,30.1609078 41.5147674,29.8504972 42.4991473,29.8504972 C43.0659115,29.8504972 43.5506368,29.9511709 43.9533376,30.1525213 L43.9533376,31.237571 C43.5170784,30.9169018 43.0323531,30.7565696 42.4991473,30.7565696 C41.8727237,30.7565696 41.36283,30.9737638 40.9694509,31.4081587 C40.5760718,31.8425537 40.3793852,32.4214275 40.3793852,33.1447976 C40.3793852,33.8569815 40.5648859,34.4144156 40.9358927,34.8171165 C41.3068995,35.2198174 41.8074716,35.4211648 42.4376239,35.4211648 C42.9708297,35.4211648 43.4741982,35.2459179 43.9477446,34.895419 L43.9477446,35.9021662 Z M45.0048291,33.1559837 C45.0048291,32.1343166 45.2900713,31.3279948 45.8605642,30.736994 C46.4310571,30.1459931 47.2047532,29.8504972 48.1816757,29.8504972 C49.110125,29.8504972 49.838145,30.1348072 50.3657577,30.7034357 C50.8933705,31.2720643 51.1571729,32.0578785 51.1571729,33.060902 C51.1571729,34.0378245 50.8756593,34.8264352 50.3126239,35.4267578 C49.7495884,36.0270804 48.9945356,36.3272372 48.0474428,36.3272372 C47.1227222,36.3272372 46.3844484,36.0364021 45.832599,35.454723 C45.2807497,34.873044 45.0048291,34.1068052 45.0048291,33.1559837 L45.0048291,33.1559837 Z M46.1234371,33.1224254 C46.1234371,33.8346094 46.3033447,34.3957721 46.6631654,34.8059304 C47.0229861,35.2160887 47.5067792,35.4211648 48.1145592,35.4211648 C48.7409828,35.4211648 49.2182508,35.2207495 49.5463774,34.819913 C49.8745041,34.4190765 50.0385649,33.8439313 50.0385649,33.0944602 C50.0385649,32.3412604 49.8745041,31.7633188 49.5463774,31.3606179 C49.2182508,30.957917 48.7409828,30.7565696 48.1145592,30.7565696 C47.4993218,30.7565696 47.0136643,30.9672387 46.6575724,31.3885831 C46.3014804,31.8099275 46.1234371,32.3878692 46.1234371,33.1224254 L46.1234371,33.1224254 Z M61.6049712,36.1818182 L60.5087354,36.1818182 L60.5087354,32.6302379 C60.5087354,31.9590698 60.404333,31.4790054 60.1955251,31.1900302 C59.9867173,30.901055 59.6436809,30.7565696 59.1664058,30.7565696 C58.7637049,30.7565696 58.4188043,30.9448667 58.1316935,31.3214666 C57.8445827,31.6980665 57.7010294,32.1436409 57.7010294,32.6582031 L57.7010294,36.1818182 L56.6047936,36.1818182 L56.6047936,32.5183771 C56.6047936,31.3438329 56.1517619,30.7565696 55.2456849,30.7565696 C54.8280692,30.7565696 54.4822364,30.9355451 54.2081761,31.2935014 C53.9341157,31.6514578 53.7970876,32.1082181 53.7970876,32.6637962 L53.7970876,36.1818182 L52.7008518,36.1818182 L52.7008518,29.9959162 L53.7970876,29.9959162 L53.7970876,30.9746982 L53.8194598,30.9746982 C54.2594478,30.2252271 54.9026409,29.8504972 55.7490585,29.8504972 C56.1629455,29.8504972 56.5283538,29.9642212 56.8452943,30.1916726 C57.1622348,30.419124 57.3822255,30.7267381 57.505273,31.1145241 C57.9639046,30.2718353 58.6499772,29.8504972 59.5635116,29.8504972 C60.9244915,29.8504972 61.6049712,30.6894447 61.6049712,32.3673651 L61.6049712,36.1818182 Z" id=".com"></path>
            </g>
        </g>
    </g>
</svg>